<svg width="424" height="281" viewBox="0 0 424 281" fill="none" xmlns="http://www.w3.org/2000/svg">
<g opacity="0.8">
<path d="M311.447 281C299.669 279.16 288.344 277.595 277.473 276.305L281.659 267.949C280.206 267.466 273.909 272.3 273.909 272.3L279.237 248.132C271.972 249.098 268.581 273.75 268.581 273.75L260.347 265.533L264.4 274.836C231.133 271.348 202.427 270.259 178.296 270.509L181.879 263.357C180.426 262.874 174.13 267.708 174.13 267.708L179.458 243.54C172.192 244.507 168.802 269.158 168.802 269.158L160.567 260.941L164.86 270.794C148.331 271.274 131.837 272.599 115.444 274.766C119.02 263.65 131.505 252.965 131.505 252.965C121.905 255.946 116.91 260.802 114.325 265.303C113.802 242.467 117.323 219.719 124.724 198.104C124.724 198.104 105.35 241.606 108.256 270.608L108.625 275.759C91.7689 278.384 83.311 281 83.311 281H311.447Z" fill="#3F3D56"/>
<path d="M355.85 221.129C354.701 221.129 353.577 220.789 352.621 220.152C351.665 219.514 350.92 218.609 350.48 217.549C350.04 216.489 349.925 215.323 350.15 214.197C350.374 213.072 350.927 212.039 351.74 211.228C352.553 210.416 353.589 209.864 354.716 209.64C355.844 209.416 357.013 209.531 358.075 209.97C359.137 210.409 360.045 211.153 360.683 212.107C361.322 213.06 361.663 214.182 361.663 215.329C361.661 216.867 361.048 218.341 359.958 219.428C358.869 220.516 357.391 221.128 355.85 221.129ZM355.85 210.495C354.892 210.495 353.956 210.779 353.159 211.31C352.363 211.841 351.742 212.596 351.375 213.479C351.009 214.363 350.913 215.334 351.1 216.272C351.287 217.21 351.748 218.071 352.425 218.747C353.103 219.423 353.966 219.883 354.905 220.07C355.845 220.256 356.819 220.16 357.704 219.795C358.589 219.429 359.345 218.809 359.878 218.014C360.41 217.22 360.694 216.285 360.694 215.329C360.693 214.047 360.182 212.819 359.274 211.913C358.366 211.007 357.135 210.497 355.85 210.495Z" fill="#3F3D56"/>
<path d="M402.266 280.239H392.704V270.697H402.266V280.239ZM393.44 279.505H401.531V271.431H393.44V279.505Z" fill="#3F3D56"/>
<path d="M78.537 280.761L72.015 273.783L79.0074 267.275L85.5294 274.253L78.537 280.761ZM73.0545 273.819L78.5732 279.724L84.4898 274.217L78.9712 268.312L73.0545 273.819Z" fill="#3F3D56"/>
<path d="M426 279.7H10.4973V280.667H426V279.7Z" fill="#3F3D56"/>
<path d="M268.085 64.6539V96.4008C268.084 96.6941 267.967 96.9752 267.759 97.1826C267.551 97.39 267.269 97.5069 266.975 97.5077H266.186V262.888C266.186 267.465 264.364 271.854 261.121 275.09C257.878 278.326 253.48 280.144 248.894 280.144H145.341C143.071 280.144 140.823 279.697 138.725 278.83C136.627 277.963 134.722 276.692 133.116 275.089C131.511 273.487 130.238 271.585 129.369 269.491C128.501 267.398 128.054 265.154 128.054 262.888V103.308H127.483C127.275 103.308 127.076 103.227 126.929 103.081C126.782 102.935 126.699 102.737 126.698 102.53V84.4619C126.698 84.359 126.718 84.2572 126.758 84.1622C126.797 84.0672 126.855 83.9808 126.928 83.9081C127.001 83.8354 127.087 83.7777 127.182 83.7384C127.278 83.699 127.38 83.6788 127.483 83.6788H128.054V76.8731H127.478C127.26 76.8723 127.052 76.7853 126.898 76.6313C126.745 76.4772 126.659 76.2687 126.659 76.0514V58.2301C126.66 58.0136 126.746 57.8061 126.9 57.6531C127.053 57.5 127.261 57.4137 127.478 57.4132H128.054V48.1231H127.468C127.373 48.1232 127.278 48.1045 127.19 48.0681C127.102 48.0317 127.022 47.9783 126.954 47.911C126.887 47.8436 126.833 47.7637 126.797 47.6756C126.76 47.5876 126.742 47.4933 126.742 47.398V37.6729C126.741 37.48 126.817 37.2948 126.954 37.158C127.09 37.0212 127.275 36.9438 127.468 36.943H128.054V17.251C128.054 12.6758 129.876 8.28806 133.118 5.0529C136.36 1.81774 140.757 0.000179039 145.341 1.23979e-05H248.894C253.479 -8.28578e-06 257.877 1.81734 261.119 5.0524C264.362 8.28746 266.185 12.6753 266.186 17.251V63.547H266.975C267.269 63.5478 267.551 63.6646 267.759 63.872C267.967 64.0795 268.084 64.3605 268.085 64.6539Z" fill="#3F3D56"/>
<path d="M202.107 8.84872H185.28C184.6 8.84872 184.049 9.3988 184.049 10.0774V11.5287C184.049 12.2073 184.6 12.7573 185.28 12.7573H202.107C202.787 12.7573 203.338 12.2073 203.338 11.5287V10.0774C203.338 9.3988 202.787 8.84872 202.107 8.84872Z" fill="#E6E8EC"/>
<path d="M208.476 13.02C209.703 13.02 210.698 12.0274 210.698 10.803C210.698 9.57862 209.703 8.58604 208.476 8.58604C207.249 8.58604 206.254 9.57862 206.254 10.803C206.254 12.0274 207.249 13.02 208.476 13.02Z" fill="#E6E8EC"/>
<path d="M257.906 20.6638V264.319C257.907 265.904 257.563 267.469 256.897 268.907C256.231 270.346 255.26 271.622 254.05 272.648C252.065 274.336 249.543 275.263 246.935 275.263H147.809C146.045 275.265 144.307 274.842 142.743 274.03C142.375 273.842 142.019 273.632 141.677 273.402C140.187 272.399 138.967 271.046 138.123 269.462C137.28 267.879 136.838 266.113 136.838 264.319V20.6638C136.838 19.226 137.122 17.8024 137.673 16.4741C138.225 15.1458 139.033 13.9388 140.051 12.9222C141.07 11.9056 142.28 11.0991 143.611 10.549C144.942 9.9988 146.368 9.71567 147.809 9.71573H162.645V11.6153C162.645 14.0061 163.597 16.299 165.291 17.9896C166.985 19.6802 169.283 20.6299 171.679 20.6299H222.092C224.487 20.6299 226.785 19.6802 228.479 17.9896C230.173 16.299 231.125 14.0061 231.125 11.6153V9.71573H246.935C248.376 9.71527 249.802 9.99812 251.134 10.5481C252.465 11.0982 253.674 11.9046 254.693 12.9213C255.712 13.938 256.52 15.1451 257.071 16.4736C257.623 17.8021 257.906 19.2259 257.906 20.6638Z" fill="#86B96E"/>
<path opacity="0.3" d="M257.906 229.44V264.319C257.907 265.904 257.563 267.469 256.897 268.907C256.231 270.345 255.26 271.622 254.05 272.648C252.065 274.336 249.543 275.263 246.935 275.262H147.809C146.045 275.265 144.307 274.842 142.743 274.03C142.375 273.842 142.019 273.632 141.677 273.402C140.187 272.399 138.967 271.046 138.123 269.462C137.28 267.879 136.838 266.113 136.838 264.319V229.455C153.46 214.545 175.019 206.295 197.369 206.292C219.719 206.29 241.28 214.534 257.906 229.44Z" fill="white"/>
<path opacity="0.3" d="M252.011 274.02C250.445 274.841 248.703 275.267 246.935 275.263H147.809C146.045 275.265 144.307 274.842 142.743 274.03C147.23 263.26 154.814 254.057 164.536 247.583C174.259 241.109 185.685 237.654 197.374 237.653C209.062 237.651 220.489 241.105 230.213 247.577C239.936 254.05 247.521 263.251 252.011 274.02Z" fill="white"/>
<path opacity="0.3" d="M230.437 274.605C229.49 275.101 228.435 275.36 227.365 275.357H167.382C166.315 275.358 165.263 275.102 164.316 274.611C167.032 268.094 171.621 262.525 177.504 258.607C183.388 254.69 190.302 252.599 197.375 252.598C204.448 252.597 211.362 254.687 217.246 258.604C223.131 262.52 227.721 268.088 230.437 274.605Z" fill="white"/>
<path d="M222.588 104.043C212.645 104.043 201.733 102.153 193.214 95.7774C181.353 86.9004 166.74 87.3741 156.57 89.3352C149.814 90.6487 143.257 92.8281 137.062 95.8194L136.614 94.9622C142.885 91.932 149.522 89.7233 156.361 88.3909C166.731 86.388 181.643 85.9094 193.795 95.0042C216.56 112.042 257.323 96.7396 257.732 96.5836L258.079 97.4861C250.435 100.205 242.529 102.126 234.488 103.217C230.544 103.754 226.569 104.03 222.588 104.043Z" fill="white"/>
<path opacity="0.3" d="M136.833 95.3908C136.833 95.3908 170.255 87.3128 193.504 98.3731C216.754 109.433 257.925 98.291 257.925 98.291" fill="white"/>
<path opacity="0.3" d="M168.386 107.939C164.348 107.921 160.322 107.52 156.361 106.741C149.522 105.409 142.885 103.2 136.614 100.17L137.062 99.3124C143.257 102.304 149.814 104.483 156.57 105.797C166.739 107.757 181.353 108.231 193.214 99.3544C205.355 90.2674 222.361 90.2929 234.488 91.9145C242.529 93.006 250.435 94.9267 258.079 97.6457L257.732 98.5482C257.323 98.3917 216.56 83.0888 193.795 100.128C185.826 106.092 176.669 107.939 168.386 107.939Z" fill="white"/>
<path opacity="0.3" d="M168.55 104.047C151.775 104.047 136.877 98.041 136.654 97.9492L137.023 97.0552C137.354 97.1916 170.487 110.541 193.258 97.0863C216.422 83.3977 257.633 95.6165 258.046 95.7415L257.765 96.6667C257.356 96.543 216.549 84.4468 193.751 97.9181C185.971 102.515 177.021 104.047 168.55 104.047Z" fill="white"/>
<path opacity="0.3" d="M136.838 96.7588C136.838 96.7588 170.255 107.819 193.504 96.7588C216.754 85.6986 257.906 95.7137 257.906 95.7137" fill="white"/>
<path d="M266.532 126.35V140.441C266.532 140.441 267.661 156.223 273.874 164.114C273.874 164.114 284.041 178.487 285.453 175.387L283.714 165.181L277.828 159.605L274.722 142.132L273.874 126.35H266.532Z" fill="#FFB8B8"/>
<path d="M328.945 253.734V264.161L320.473 267.262V255.143L328.945 253.734Z" fill="#FFB8B8"/>
<path d="M311.718 252.607L317.366 265.289L309.459 268.671L307.764 256.271L311.718 252.607Z" fill="#FFB8B8"/>
<path d="M325.838 155.377C325.838 155.377 337.135 257.116 332.899 257.398C328.662 257.68 320.472 263.034 320.472 259.371C320.472 255.707 313.977 208.079 313.977 208.079L307.764 183.56V217.379L314.259 255.707C314.259 255.707 308.046 263.88 303.528 259.089L293.926 221.606C293.926 221.606 281.217 164.678 281.782 160.168C281.782 160.168 310.87 135.368 325.838 155.377Z" fill="#2F2E41"/>
<path d="M323.579 264.725C323.579 264.725 325.838 259.934 330.922 263.034L335.158 268.107C335.158 268.107 346.08 277.133 338.33 279.067C330.342 281.059 325.556 278.939 325.556 278.939C325.556 278.939 324.144 278.094 323.014 278.094C321.885 278.094 319.343 276.121 319.343 275.557C319.343 274.994 320.19 265.007 320.19 265.007C320.51 264.852 320.87 264.795 321.222 264.845C321.574 264.896 321.903 265.05 322.167 265.289C323.014 266.134 323.579 264.725 323.579 264.725Z" fill="#2F2E41"/>
<path d="M306.917 263.034C306.917 263.034 312.283 258.807 314.824 263.598C314.824 263.598 316.425 264.162 316.613 263.598C316.801 263.034 318.213 262.752 318.213 265.853C318.213 268.953 319.747 276.685 318.335 276.967C316.923 277.248 315.511 278.094 315.793 279.221C316.075 280.348 314.259 280.507 307.764 280.226C301.269 279.944 300.986 277.407 300.986 277.407C300.986 277.407 300.986 273.744 302.681 271.771C304.375 269.798 306.917 263.034 306.917 263.034Z" fill="#2F2E41"/>
<path d="M296.467 78.4394C296.467 78.4394 295.055 88.8669 304.093 92.5307C313.13 96.1944 284.041 108.313 281.217 101.267C278.393 94.2216 281.782 91.967 281.782 91.967C281.782 91.967 284.606 89.1488 282.064 81.5395L296.467 78.4394Z" fill="#FFB8B8"/>
<path d="M287.43 85.7669C294.293 85.7669 299.856 80.2151 299.856 73.3666C299.856 66.5181 294.293 60.9663 287.43 60.9663C280.568 60.9663 275.004 66.5181 275.004 73.3666C275.004 80.2151 280.568 85.7669 287.43 85.7669Z" fill="#FFB8B8"/>
<path d="M301.833 95.9125C301.833 95.9125 293.361 100.422 285.171 97.0398C276.981 93.658 277.263 108.313 277.263 108.313L281.5 119.304L310.87 116.486L308.894 99.5763L301.833 95.9125Z" fill="#F2F2F2"/>
<path d="M297.624 86.2694C299.128 86.5879 300.542 87.2401 301.759 88.1775C302.977 89.115 303.967 90.3138 304.657 91.6852L318.213 95.9125L321.602 100.704L317.648 135.368C317.648 135.368 324.991 142.414 324.991 146.359C324.991 150.305 334.028 163.832 329.51 162.141C324.991 160.45 316.801 154.532 316.801 154.532C316.801 154.532 296.185 155.377 289.69 161.014C283.194 166.65 280.652 164.959 280.652 164.959C280.652 164.959 273.874 135.65 273.592 131.141C273.31 126.631 265.402 99.5762 265.402 99.5762L279.523 91.6852L283.119 87.6128L293.079 103.522L302.116 92.5306C302.116 92.5306 297.651 89.0265 297.624 86.2694Z" fill="#3F3D56"/>
<path d="M325.838 122.404L327.533 131.422C327.533 131.422 335.158 159.605 334.028 169.187C334.028 169.187 334.876 190.605 330.075 188.069C325.273 185.533 327.815 170.032 327.815 170.032L321.037 142.132L317.366 125.786L325.838 122.404Z" fill="#FFB8B8"/>
<path d="M318.778 99.0126L321.602 100.704C321.602 100.704 332.334 122.968 329.792 124.659C327.25 126.35 316.236 130.013 316.236 130.013L318.778 99.0126Z" fill="#3F3D56"/>
<path d="M272.18 99.5764L265.543 99.4353L263.99 102.113L265.967 129.45L276.134 131.704L272.18 99.5764Z" fill="#3F3D56"/>
<path d="M297.549 62.8792L299.789 62.0664C299.789 62.0664 295.106 57.3931 288.59 57.7995L290.423 55.9708C290.423 55.9708 285.943 54.3453 281.871 58.6122C279.73 60.8553 277.253 63.4918 275.709 66.4619H273.311L274.312 68.4599L270.808 70.458L274.404 70.0991C274.064 71.824 274.181 73.6079 274.744 75.2737L275.559 77.5088C275.559 77.5088 278.817 71.0067 278.817 70.1939V72.2258C278.817 72.2258 281.056 70.3971 281.056 69.178L282.278 70.6003L282.889 68.3653L290.423 70.6003L289.201 68.7716L293.884 69.3812L292.051 67.1461C292.051 67.1461 297.345 69.7876 297.549 72.0227C297.753 74.2578 299.15 77.1712 299.15 77.1712L300.845 75.1985C300.845 75.1985 303.454 65.927 297.549 62.8792Z" fill="#2F2E41"/>
<path d="M297.88 76.0439C298.425 76.0439 298.868 74.9083 298.868 73.5075C298.868 72.1067 298.425 70.9711 297.88 70.9711C297.334 70.9711 296.891 72.1067 296.891 73.5075C296.891 74.9083 297.334 76.0439 297.88 76.0439Z" fill="#FFB8B8"/>
<path d="M20.1661 264.404C26.186 275.545 38.9624 280.328 38.9624 280.328C38.9624 280.328 41.9786 267.047 35.9587 255.906C29.9388 244.766 17.1624 239.983 17.1624 239.983C17.1624 239.983 14.1462 253.263 20.1661 264.404Z" fill="#3F3D56"/>
<path d="M24.3038 260.739C35.1722 267.264 39.358 280.225 39.358 280.225C39.358 280.225 25.9226 282.606 15.0542 276.081C4.18577 269.556 0 256.595 0 256.595C0 256.595 13.4354 254.214 24.3038 260.739Z" fill="#86B96E"/>
<path opacity="0.3" d="M136.838 95.3908C136.838 95.3908 170.255 77.99 193.504 95.3908C216.754 112.792 257.906 97.035 257.906 97.035" fill="white"/>
<path d="M197.5 272.457C200.443 272.457 202.828 270.076 202.828 267.14C202.828 264.203 200.443 261.823 197.5 261.823C194.558 261.823 192.172 264.203 192.172 267.14C192.172 270.076 194.558 272.457 197.5 272.457Z" fill="white"/>
</g>
</svg>
