<svg width="265" height="284" viewBox="0 0 265 284" fill="none" xmlns="http://www.w3.org/2000/svg">
<g opacity="0.9" clip-path="url(#clip0)">
<path d="M260.913 274.168C254.611 282.604 241.529 283.492 241.529 283.492C241.529 283.492 238.665 270.702 244.967 262.265C251.269 253.828 264.351 252.94 264.351 252.94C264.351 252.94 267.215 265.731 260.913 274.168Z" fill="#E6E6E6"/>
<path d="M228.809 277.339C232.968 282.906 241.6 283.492 241.6 283.492C241.6 283.492 243.49 275.052 239.331 269.485C235.173 263.918 226.541 263.332 226.541 263.332C226.541 263.332 224.651 271.772 228.809 277.339Z" fill="#E6E6E6"/>
<path d="M257.004 284H144.362V283.08H257.171L257.004 284Z" fill="#3F3D56"/>
<path d="M252.758 8.12689H0V148.5H252.758V8.12689Z" fill="#E6E6E6"/>
<path d="M13.8029 134.702H238.955V21.9252H13.8029V134.702Z" fill="white"/>
<path d="M252.388 0H0.369537V12.5597H252.388V0Z" fill="#86B96E"/>
<path d="M72.3986 61.6902H26.577V94.1978H72.3986V61.6902Z" fill="#E6E6E6"/>
<path d="M226.18 61.6902H99.8016V65.3843H226.18V61.6902Z" fill="#E6E6E6"/>
<path d="M226.18 76.4664H99.8016V80.1604H226.18V76.4664Z" fill="#E6E6E6"/>
<path d="M226.18 91.2425H99.8016V94.9365H226.18V91.2425Z" fill="#E6E6E6"/>
<path d="M184.884 151.241L183.651 158.326C183.651 158.326 177.796 174.654 179.336 190.057C180.877 205.46 182.11 216.243 182.11 216.243C182.11 216.243 177.487 255.059 179.336 268.922C179.336 268.922 184.267 275.7 190.739 268.614L195.67 217.475L200.908 181.123L205.531 221.788L208.613 267.998C208.613 267.998 212.927 272.619 219.399 268.614L218.782 216.243C218.782 216.243 224.329 171.881 223.405 168.184C222.48 164.488 216.317 150.008 216.317 150.008L184.884 151.241Z" fill="#2F2E41"/>
<path d="M181.802 269.23L182.11 275.7C182.11 275.7 177.413 283.023 183.268 283.023C183.327 283.023 183.21 283.023 183.268 283.023C187.503 283.01 191.33 284.915 190.829 280.711L190.122 274.776L188.89 268.306L181.802 269.23Z" fill="#2F2E41"/>
<path d="M217.513 269.23L217.204 275.7C217.204 275.7 221.901 283.023 216.046 283.023C215.988 283.023 216.104 283.023 216.046 283.023C211.812 283.01 207.985 284.915 208.485 280.711L209.192 274.776L210.425 268.306L217.513 269.23Z" fill="#2F2E41"/>
<path d="M199.213 97.7911C204.66 97.7911 209.075 93.3775 209.075 87.933C209.075 82.4885 204.66 78.0748 199.213 78.0748C193.767 78.0748 189.352 82.4885 189.352 87.933C189.352 93.3775 193.767 97.7911 199.213 97.7911Z" fill="#9F616A"/>
<path d="M194.899 94.4024C194.899 94.4024 196.132 108.574 192.434 110.73C188.736 112.886 207.842 111.962 207.842 111.962C207.842 111.962 203.528 95.3266 203.836 93.4782L194.899 94.4024Z" fill="#FFB8B8"/>
<path d="M213.543 103.49C213.543 103.49 201.217 97.9451 183.959 103.49C183.959 103.49 176.409 105.493 175.484 107.957C174.56 110.422 185.808 138.61 184.575 143.539C183.834 146.56 183.625 149.688 183.959 152.781C183.959 152.781 211.078 149.084 217.55 151.857C217.55 151.857 215.084 143.847 215.701 138.302C216.317 132.757 221.556 106.879 221.556 106.879C221.556 106.879 218.782 104.106 213.543 103.49Z" fill="#86B96E"/>
<path d="M224.329 176.81C224.329 176.81 219.707 190.981 224.638 191.289C229.568 191.597 227.411 180.507 227.411 180.507L226.795 176.81H224.329Z" fill="#9F616A"/>
<path d="M215.084 108.728L221.556 106.879C221.556 106.879 225.254 109.652 225.254 113.349C225.254 117.045 224.638 140.766 224.638 140.766L229.26 176.194L222.172 178.659L213.852 140.458L215.084 108.728Z" fill="#86B96E"/>
<path d="M173.789 176.81C173.789 176.81 178.412 190.981 173.481 191.289C168.551 191.597 170.708 180.507 170.708 180.507L171.324 176.81H173.789Z" fill="#9F616A"/>
<path d="M183.035 108.728L176.563 106.879C176.563 106.879 172.865 109.652 172.865 113.349C172.865 117.045 173.481 140.766 173.481 140.766L168.859 176.194L175.947 178.659L184.267 140.458L183.035 108.728Z" fill="#86B96E"/>
<path d="M203.528 73.4538C203.528 73.4538 194.899 71.9135 193.05 83.312C191.201 94.7104 192.126 99.0234 189.044 100.256C185.962 101.488 185.038 103.028 185.654 105.493C186.27 107.957 188.428 108.882 185.346 113.503C182.264 118.124 192.126 116.891 200.138 120.588C208.15 124.285 226.641 119.048 224.175 114.735C221.71 110.422 217.704 112.27 219.553 107.341C221.402 102.412 222.018 101.488 219.553 98.4072C217.087 95.3266 220.785 76.2264 203.528 73.4538Z" fill="#2F2E41"/>
</g>
<defs>
<clipPath id="clip0">
<rect width="265" height="284" fill="white"/>
</clipPath>
</defs>
</svg>
