<svg width="206" height="147" viewBox="0 0 206 147" fill="none" xmlns="http://www.w3.org/2000/svg">
<g clip-path="url(#clip0)" filter="url(#filter0_d)">
<path d="M105.123 138.705C111.078 138.705 115.905 133.896 115.905 127.964C115.905 122.032 111.078 117.222 105.123 117.222C99.1674 117.222 94.3398 122.032 94.3398 127.964C94.3398 133.896 99.1674 138.705 105.123 138.705Z" fill="#86B96E"/>
<path d="M169.54 138.102C175.572 136.297 181.986 134.415 186.77 130.125C191.045 126.291 193.931 120.437 192.16 114.687C190.393 108.949 185.099 105.123 179.633 103.221C176.533 102.141 173.289 101.543 170.047 101.072C166.523 100.561 162.983 100.142 159.445 99.7388C145.118 98.1065 130.738 97.1093 116.303 96.7473C109.181 96.5686 102.06 96.5729 94.9363 96.6759C88.5746 96.7679 81.8745 96.7656 75.9728 94.0722C71.3834 91.9776 67.2181 88.1669 65.9393 83.1594C64.4632 77.3789 67.1859 71.4923 71.0916 67.3059C73.1503 65.0991 75.5565 63.2419 78.0386 61.5341C80.7314 59.6814 83.518 57.9599 86.3651 56.3529C91.9724 53.1895 97.8347 50.4972 103.891 48.3041C106.879 47.2219 109.911 46.2883 112.969 45.4269C115.552 44.6996 118.142 43.9713 120.638 42.9803C125.463 41.0647 130.052 37.8198 131.279 32.5C132.442 27.4582 130.481 21.9849 127.044 18.2394C123.068 13.9061 117.073 12.0066 111.325 11.6992C104.872 11.3542 98.5678 12.963 92.5026 15.0048C86.0336 17.1825 79.7042 19.6865 73.0986 21.4504C66.5482 23.1979 59.8711 24.4343 53.1279 25.1484C49.8268 25.4986 46.4261 25.894 43.1054 25.6259C40.3224 25.4012 37.5536 24.5859 35.5025 22.6184C33.7439 20.9313 32.6962 18.6127 33.0564 16.1659C33.1218 15.7215 33.7995 15.9104 33.7345 16.3521C33.2961 19.3306 35.3285 22.0752 37.833 23.4811C40.7275 25.1059 44.2497 25.1081 47.4723 24.9223C54.4598 24.5019 61.4 23.5025 68.221 21.9344C74.9233 20.4094 81.3863 18.2294 87.842 15.9007C93.9732 13.689 100.241 11.5303 106.792 11.0513C112.475 10.6356 118.454 11.4604 123.405 14.4192C127.757 17.0196 130.957 21.3562 131.976 26.3325C132.973 31.1953 131.593 36.0898 127.898 39.4832C124.072 42.9967 118.826 44.4988 113.937 45.8822C107.736 47.6369 101.669 49.688 95.7954 52.3512C89.8422 55.0431 84.1328 58.2406 78.7304 61.9084C73.5157 65.4583 68.3693 69.9249 66.72 76.2579C65.9518 79.2079 66.0936 82.3367 67.3791 85.123C68.5221 87.6006 70.4045 89.6846 72.5975 91.292C77.8297 95.1273 84.424 95.9148 90.7441 95.9931C97.8424 96.0811 104.941 95.8425 112.041 95.9585C126.512 96.1951 140.953 97.0726 155.365 98.5908C158.976 98.9716 162.582 99.3925 166.184 99.8535C169.424 100.268 172.675 100.68 175.861 101.417C181.524 102.726 187.036 105.244 190.556 110.028C192.118 112.102 193.086 114.559 193.357 117.138C193.603 119.829 192.942 122.525 191.72 124.918C189.017 130.217 183.954 133.587 178.576 135.801C175.696 136.987 172.709 137.885 169.727 138.777C169.293 138.907 169.107 138.231 169.54 138.102L169.54 138.102Z" fill="#F2F2F2"/>
<path d="M33.5105 21.8333C36.6175 21.8333 39.1363 19.3242 39.1363 16.229C39.1363 13.1339 36.6175 10.6248 33.5105 10.6248C30.4034 10.6248 27.8846 13.1339 27.8846 16.229C27.8846 19.3242 30.4034 21.8333 33.5105 21.8333Z" fill="#F2F2F2"/>
<path d="M72.5397 32.458C75.6467 32.458 78.1655 29.9489 78.1655 26.8538C78.1655 23.7586 75.6467 21.2495 72.5397 21.2495C69.4326 21.2495 66.9138 23.7586 66.9138 26.8538C66.9138 29.9489 69.4326 32.458 72.5397 32.458Z" fill="#F2F2F2"/>
<path d="M105.591 11.2085C108.698 11.2085 111.217 8.69941 111.217 5.60426C111.217 2.50911 108.698 0 105.591 0C102.484 0 99.9656 2.50911 99.9656 5.60426C99.9656 8.69941 102.484 11.2085 105.591 11.2085Z" fill="#F2F2F2"/>
<path d="M126.219 35.0266C129.327 35.0266 131.845 32.5175 131.845 29.4224C131.845 26.3272 129.327 23.8181 126.219 23.8181C123.112 23.8181 120.594 26.3272 120.594 29.4224C120.594 32.5175 123.112 35.0266 126.219 35.0266Z" fill="#F2F2F2"/>
<path d="M98.3247 62.5808C101.432 62.5808 103.951 60.0717 103.951 56.9766C103.951 53.8814 101.432 51.3723 98.3247 51.3723C95.2177 51.3723 92.6989 53.8814 92.6989 56.9766C92.6989 60.0717 95.2177 62.5808 98.3247 62.5808Z" fill="#F2F2F2"/>
<path d="M62.9289 75.891C66.0359 75.891 68.5547 73.3819 68.5547 70.2868C68.5547 67.1916 66.0359 64.6825 62.9289 64.6825C59.8218 64.6825 57.303 67.1916 57.303 70.2868C57.303 73.3819 59.8218 75.891 62.9289 75.891Z" fill="#F2F2F2"/>
<path d="M100.434 96.6735C103.541 96.6735 106.06 94.1644 106.06 91.0692C106.06 87.9741 103.541 85.465 100.434 85.465C97.3274 85.465 94.8086 87.9741 94.8086 91.0692C94.8086 94.1644 97.3274 96.6735 100.434 96.6735Z" fill="#F2F2F2"/>
<path d="M140.753 108.349C143.86 108.349 146.379 105.84 146.379 102.745C146.379 99.6496 143.86 97.1405 140.753 97.1405C137.646 97.1405 135.127 99.6496 135.127 102.745C135.127 105.84 137.646 108.349 140.753 108.349Z" fill="#F2F2F2"/>
<path d="M187.869 105.78C190.976 105.78 193.495 103.271 193.495 100.176C193.495 97.081 190.976 94.5719 187.869 94.5719C184.762 94.5719 182.243 97.081 182.243 100.176C182.243 103.271 184.762 105.78 187.869 105.78Z" fill="#F2F2F2"/>
<path d="M103.968 15.8795C87.1154 15.9981 73.317 29.6402 73.0776 46.4265C73.0754 46.5815 73.0744 47.6712 73.0745 49.0965C73.0746 51.1863 73.908 53.1905 75.3914 54.6683C76.8747 56.146 78.8866 56.9763 80.9844 56.9766H80.9844C82.0244 56.9763 83.0541 56.772 84.0147 56.3752C84.9753 55.9784 85.848 55.3969 86.583 54.664C87.3179 53.9311 87.9007 53.0611 88.298 52.1037C88.6953 51.1463 88.8993 50.1204 88.8984 49.0844C88.8976 48.1149 88.8971 47.4438 88.8971 47.4026C88.8965 44.8083 89.5739 42.2586 90.8626 40.0042C92.1514 37.7498 94.007 35.8684 96.247 34.5451C98.487 33.2218 101.034 32.5022 103.638 32.457C106.242 32.4118 108.813 33.0427 111.098 34.2875C113.383 35.5323 115.303 37.3481 116.67 39.5565C118.036 41.7648 118.803 44.2895 118.893 46.8822C118.983 49.475 118.394 52.0464 117.184 54.3437C115.974 56.6409 114.184 58.5848 111.991 59.9841L111.994 59.9874C111.994 59.9874 100.736 67.2074 97.3033 77.112L97.3062 77.1127C96.7026 79.1417 96.3968 81.247 96.3982 83.3633C96.3982 84.2332 96.4496 91.8447 96.5488 98.0226C96.5835 100.154 97.4581 102.187 98.9837 103.682C100.509 105.177 102.564 106.014 104.704 106.014H104.704C105.779 106.014 106.844 105.802 107.837 105.39C108.83 104.979 109.731 104.376 110.489 103.616C111.247 102.856 111.847 101.955 112.254 100.963C112.661 99.9716 112.867 98.9097 112.86 97.8385C112.826 92.1807 112.807 85.5928 112.807 85.1146C112.807 79.0329 118.696 72.9733 123.534 69.0217C129.105 64.4712 133.114 58.2701 134.724 51.2751C135.081 49.8349 135.277 48.3601 135.31 46.8772C135.31 42.7876 134.498 38.7384 132.92 34.9629C131.342 31.1874 129.03 27.7602 126.116 24.8789C123.203 21.9976 119.746 19.719 115.945 18.1744C112.143 16.6299 108.073 15.8499 103.968 15.8795Z" fill="#86B96E"/>
<path d="M201.721 139H4.27912C4.20524 139 4.13446 138.97 4.08229 138.918C4.03012 138.866 4.00082 138.796 4.00082 138.722C4.00082 138.648 4.03012 138.578 4.08229 138.526C4.13446 138.474 4.20524 138.444 4.27912 138.444H201.721C201.795 138.444 201.866 138.473 201.918 138.525C201.971 138.578 202 138.648 202 138.722C202 138.796 201.971 138.866 201.918 138.919C201.866 138.971 201.795 139 201.721 139Z" fill="#3F3D56"/>
<path d="M151.314 63.7475C155.198 63.7475 158.347 60.6111 158.347 56.7421C158.347 52.8732 155.198 49.7368 151.314 49.7368C147.431 49.7368 144.282 52.8732 144.282 56.7421C144.282 60.6111 147.431 63.7475 151.314 63.7475Z" fill="#2F2E41"/>
<path d="M138.319 135.933H135.446L134.079 124.891H138.32L138.319 135.933Z" fill="#A0616A"/>
<path d="M133.393 135.115H138.935V138.592H129.903C129.903 138.135 129.994 137.683 130.169 137.261C130.344 136.84 130.601 136.456 130.926 136.134C131.25 135.811 131.634 135.555 132.058 135.38C132.481 135.205 132.935 135.115 133.393 135.115Z" fill="#2F2E41"/>
<path d="M160.588 135.933H157.715L156.347 124.891H160.589L160.588 135.933Z" fill="#A0616A"/>
<path d="M155.662 135.115H161.204V138.592H152.172C152.172 138.135 152.263 137.683 152.438 137.261C152.613 136.84 152.87 136.456 153.194 136.134C153.518 135.811 153.903 135.555 154.327 135.38C154.75 135.205 155.204 135.115 155.662 135.115Z" fill="#2F2E41"/>
<path d="M150.246 63.7884C153.425 63.7884 156.003 61.2206 156.003 58.0531C156.003 54.8856 153.425 52.3179 150.246 52.3179C147.066 52.3179 144.488 54.8856 144.488 58.0531C144.488 61.2206 147.066 63.7884 150.246 63.7884Z" fill="#A0616A"/>
<path d="M153.677 82.2905L156.253 76.3943C156.879 75.0112 157.058 73.4686 156.767 71.9796C156.475 70.4906 155.726 69.1286 154.624 68.0814C154.398 67.8585 154.158 67.6502 153.905 67.4579C152.634 66.4673 151.067 65.9274 149.453 65.9237C148.368 65.9279 147.297 66.1653 146.312 66.6196C146.228 66.6569 146.146 66.6966 146.061 66.7363C145.9 66.8134 145.74 66.8974 145.586 66.9838C144.576 67.5611 143.718 68.3664 143.078 69.335C142.439 70.3037 142.037 71.4084 141.905 72.5601L140.768 82.05C140.482 82.7949 130.281 109.695 133.849 130.233C133.887 130.452 133.994 130.653 134.155 130.808C134.316 130.962 134.523 131.061 134.744 131.09L138.361 131.58C138.625 131.616 138.893 131.551 139.111 131.398C139.329 131.245 139.481 131.015 139.535 130.756L145.604 101.938C145.642 101.759 145.739 101.598 145.88 101.48C146.02 101.362 146.197 101.295 146.38 101.289C146.564 101.283 146.744 101.338 146.892 101.446C147.041 101.554 147.148 101.708 147.198 101.884L155.773 132.189C155.834 132.41 155.966 132.604 156.148 132.742C156.331 132.88 156.554 132.955 156.783 132.955C156.852 132.955 156.92 132.949 156.987 132.937L161.406 132.089C161.663 132.041 161.892 131.899 162.05 131.692C162.207 131.484 162.281 131.225 162.257 130.966C161.607 123.753 158.157 87.6215 153.677 82.2905Z" fill="#2F2E41"/>
<path d="M127.871 62.8261C127.831 63.167 127.867 63.5126 127.975 63.8384C128.084 64.1642 128.263 64.4623 128.5 64.7117C128.737 64.9611 129.025 65.1558 129.346 65.282C129.666 65.4082 130.011 65.4629 130.355 65.4422L133.573 73.1463L136.007 69.5515L132.578 62.7867C132.505 62.2134 132.223 61.6867 131.786 61.3065C131.349 60.9263 130.787 60.719 130.207 60.7238C129.627 60.7287 129.069 60.9454 128.638 61.3328C128.208 61.7203 127.935 62.2516 127.871 62.8261L127.871 62.8261Z" fill="#A0616A"/>
<path d="M149.927 90.0479C150.269 90.0071 150.598 89.8921 150.89 89.711C151.183 89.5299 151.432 89.287 151.621 88.9996C151.809 88.7121 151.932 88.3869 151.98 88.0471C152.029 87.7072 152.002 87.3609 151.902 87.0325L158.673 82.1198L154.596 80.5991L148.791 85.4974C148.249 85.702 147.8 86.0977 147.531 86.6096C147.262 87.1215 147.19 87.714 147.33 88.2749C147.47 88.8358 147.812 89.3261 148.29 89.6528C148.769 89.9796 149.351 90.1202 149.927 90.0479Z" fill="#A0616A"/>
<path d="M138.889 78.2823C138.629 78.2821 138.37 78.2567 138.115 78.2064C137.5 78.0896 136.922 77.8237 136.434 77.4321C135.945 77.0406 135.561 76.5353 135.315 75.9609L130.806 70.4843C130.711 70.3686 130.641 70.2338 130.603 70.0891C130.564 69.9445 130.556 69.7932 130.581 69.6455C130.606 69.4978 130.662 69.357 130.746 69.2327C130.829 69.1083 130.939 69.0032 131.067 68.9243L134.274 66.9463C134.393 66.8733 134.524 66.8243 134.662 66.8023C134.8 66.7802 134.94 66.7855 135.076 66.8179C135.211 66.8503 135.339 66.909 135.451 66.9908C135.564 67.0726 135.659 67.1757 135.731 67.2943L138.909 72.5096L144.995 68.0293C145.479 67.7762 146.039 67.7052 146.572 67.8293C147.104 67.9534 147.574 68.2643 147.896 68.7052C148.218 69.146 148.369 69.6875 148.323 70.2305C148.277 70.7736 148.037 71.2821 147.646 71.6631L141.572 77.1825C140.858 77.8873 139.894 78.2826 138.889 78.2823Z" fill="#2F2E41"/>
<path d="M155.332 86.5188C155.324 86.5188 155.316 86.5188 155.308 86.5186C155.16 86.515 155.014 86.4805 154.881 86.4173C154.747 86.3542 154.628 86.2637 154.532 86.1519L151.68 82.8376C151.583 82.7247 151.511 82.5926 151.468 82.4499C151.426 82.3073 151.415 82.1574 151.436 82.0101C151.456 81.8629 151.508 81.7216 151.587 81.5956C151.666 81.4696 151.771 81.3619 151.895 81.2794L157.236 77.733L152.398 71.939C152.116 71.4716 152.013 70.919 152.107 70.382C152.201 69.8451 152.485 69.3597 152.909 69.0146C153.332 68.6694 153.866 68.4875 154.413 68.5022C154.96 68.5168 155.483 68.7269 155.887 69.0942L161.767 74.8182C162.23 75.2393 162.583 75.766 162.797 76.3531C163.01 76.9401 163.077 77.57 162.993 78.1887C162.908 78.8073 162.674 79.3963 162.31 79.9049C161.947 80.4136 161.465 80.8268 160.906 81.1091L156.1 86.1888C156.001 86.293 155.882 86.3759 155.75 86.4327C155.618 86.4894 155.476 86.5187 155.332 86.5188Z" fill="#2F2E41"/>
<path d="M148.782 74.3064C148.736 74.3064 148.69 74.3035 148.645 74.2978C148.446 74.2737 148.259 74.1934 148.105 74.0664C147.951 73.9394 147.836 73.771 147.775 73.5812L145.632 67.036C145.578 66.8705 145.587 66.6913 145.655 66.5314C145.724 66.3715 145.849 66.2418 146.006 66.1663L146.075 66.1336C146.138 66.1037 146.201 66.0741 146.265 66.0459C147.264 65.5842 148.352 65.3434 149.453 65.34C150.883 65.3426 152.281 65.7611 153.476 66.5441C153.636 66.6503 153.748 66.8149 153.788 67.0025C153.827 67.19 153.791 67.3855 153.687 67.5469L149.667 73.8208C149.573 73.9698 149.442 74.0925 149.287 74.1774C149.133 74.2624 148.959 74.3067 148.782 74.3064Z" fill="#E6E6E6"/>
<path d="M156.859 53.6148C158.13 53.6148 159.16 52.5885 159.16 51.3225C159.16 50.0565 158.13 49.0302 156.859 49.0302C155.588 49.0302 154.558 50.0565 154.558 51.3225C154.558 52.5885 155.588 53.6148 156.859 53.6148Z" fill="#2F2E41"/>
<path d="M148.97 48.8027C147.354 48.8027 145.804 49.4424 144.661 50.581C143.518 51.7195 142.876 53.2638 142.876 54.874V57.4426H146.047L147.564 54.874L148.019 57.4426H157.643L155.065 54.874C155.065 53.2638 154.423 51.7195 153.28 50.581C152.137 49.4424 150.587 48.8027 148.97 48.8027Z" fill="#2F2E41"/>
<path d="M158.041 49.7523C158.296 48.9596 158.823 48.2817 159.529 47.8378C160.236 47.3938 161.077 47.2122 161.905 47.3248C163.371 47.569 164.531 48.7433 165.221 50.0548C165.912 51.3663 166.231 52.8342 166.696 54.2412C167.16 55.6482 167.819 57.0628 168.991 57.9736C170.164 58.8844 171.963 59.1314 173.115 58.1945C172.983 59.171 172.547 60.0815 171.867 60.7973C171.188 61.5132 170.299 61.9981 169.328 62.1835C168.357 62.3689 167.351 62.2454 166.454 61.8305C165.557 61.4156 164.814 60.7302 164.33 59.8714C163.722 58.7945 163.565 57.5324 163.385 56.3101C163.205 55.0879 162.971 53.8233 162.245 52.8214C161.52 51.8195 160.162 51.1651 159.009 51.6215L158.041 49.7523Z" fill="#2F2E41"/>
<path d="M83.2179 53.2495C81.12 53.2493 79.1082 52.4189 77.6248 50.9412C76.1415 49.4634 75.3081 47.4592 75.3079 45.3694C75.3078 43.9441 75.3089 42.8544 75.311 42.6994C75.3777 37.8175 76.6119 33.0218 78.9113 28.7101C75.1335 33.862 73.0562 40.0561 72.9669 46.4356C72.9648 46.5906 72.9637 47.6803 72.9638 49.1056C72.964 51.1954 73.7974 53.1996 75.2807 54.6774C76.7641 56.1551 78.7759 56.9854 80.8738 56.9857C82.5977 56.985 84.2742 56.4239 85.6487 55.3875C87.0232 54.3511 88.0206 52.8961 88.4893 51.2435C87.0409 52.5373 85.1633 53.2518 83.2179 53.2495Z" fill="#3F3D56"/>
<path d="M104.504 32.4836C106.929 32.599 109.29 33.299 111.384 34.5235C113.478 35.748 115.242 37.4605 116.525 39.5139C117.808 41.5672 118.572 43.9002 118.75 46.3123C118.929 48.7244 118.517 51.1437 117.551 53.3625C118.949 51.7267 119.977 49.8097 120.564 47.7424C121.151 45.675 121.284 43.5059 120.953 41.3828C120.622 39.2597 119.836 37.2326 118.647 35.4397C117.459 33.6468 115.896 32.1303 114.066 30.9935C112.236 29.8567 110.182 29.1264 108.042 28.8523C105.903 28.5782 103.73 28.7669 101.671 29.4054C99.6113 30.0439 97.7144 31.1172 96.1092 32.5522C94.5041 33.9872 93.2284 35.7501 92.3691 37.7207C93.8542 35.9804 95.7206 34.6032 97.8245 33.6952C99.9284 32.7872 102.214 32.3726 104.504 32.4836Z" fill="#3F3D56"/>
<path d="M106.937 102.287C104.797 102.287 102.743 101.45 101.217 99.9546C99.6915 98.4596 98.817 96.427 98.7822 94.2954C98.683 88.1176 98.6316 80.5061 98.6316 79.6362C98.6302 77.5199 98.9361 75.4146 99.5396 73.3856L99.5367 73.3849C99.8931 72.3664 100.324 71.3752 100.825 70.4191C99.2865 72.4609 98.0624 74.7197 97.1926 77.121L97.1955 77.1217C96.592 79.1508 96.2861 81.2561 96.2875 83.3723C96.2875 84.2423 96.3389 91.8538 96.4381 98.0316C96.4729 100.163 97.3474 102.196 98.873 103.691C100.399 105.186 102.453 106.023 104.593 106.023C106.358 106.023 108.075 105.452 109.486 104.398C110.898 103.343 111.928 101.861 112.423 100.174C110.923 101.536 108.967 102.29 106.937 102.287Z" fill="#3F3D56"/>
<path d="M33.6624 136.04L36.536 136.04L37.9033 124.997L33.6617 124.998L33.6624 136.04Z" fill="#FFB8B8"/>
<path d="M42.0786 138.698L33.0466 138.698L33.0465 135.222L38.5888 135.222C39.5143 135.222 40.4019 135.588 41.0564 136.24C41.7108 136.892 42.0785 137.776 42.0786 138.698L42.0786 138.698Z" fill="#2F2E41"/>
<path d="M23.3484 136.04L26.222 136.04L27.5893 124.997L23.3477 124.998L23.3484 136.04Z" fill="#FFB8B8"/>
<path d="M31.7646 138.698L22.7326 138.698L22.7324 135.222L28.2748 135.222C29.2003 135.222 30.0879 135.588 30.7424 136.24C31.3968 136.892 31.7645 137.776 31.7646 138.698L31.7646 138.698Z" fill="#2F2E41"/>
<path d="M25.8597 132.644L23.0526 132.497C22.9079 132.489 22.7661 132.453 22.6355 132.391C22.5048 132.328 22.388 132.24 22.2916 132.132C22.1953 132.024 22.1214 131.899 22.0743 131.762C22.0271 131.626 22.0076 131.481 22.0169 131.337L25.3719 94.3334L40.8221 98.4865L42.3107 98.082L37.6557 130.84C37.616 131.086 37.4932 131.312 37.3074 131.479C37.1217 131.647 36.8842 131.746 36.6341 131.761L33.6081 131.902C33.4568 131.91 33.3054 131.887 33.1635 131.834C33.0215 131.781 32.8922 131.7 32.7835 131.594C32.6749 131.489 32.5893 131.362 32.5323 131.223C32.4753 131.083 32.448 130.933 32.4521 130.782L33.0004 111.121C33.003 111.03 32.9713 110.941 32.9115 110.873C32.8518 110.804 32.7684 110.76 32.6777 110.749C32.587 110.739 32.4956 110.762 32.4216 110.816C32.3476 110.869 32.2962 110.948 32.2777 111.037L26.9901 131.776C26.9402 132.022 26.8062 132.243 26.6109 132.401C26.4156 132.56 26.1711 132.646 25.9191 132.646C25.8994 132.646 25.8796 132.645 25.8597 132.644Z" fill="#2F2E41"/>
<path d="M34.1784 64.0566C37.3581 64.0566 39.9357 61.4888 39.9357 58.3213C39.9357 55.1538 37.3581 52.5861 34.1784 52.5861C30.9987 52.5861 28.4211 55.1538 28.4211 58.3213C28.4211 61.4888 30.9987 64.0566 34.1784 64.0566Z" fill="#FFB8B8"/>
<path d="M24.5928 75.1713L25.2258 88.7774L25.4547 93.7275C25.4638 93.9429 25.5372 94.1508 25.6656 94.3245C25.794 94.4982 25.9715 94.6298 26.1753 94.7024L41.0219 100.06C41.1418 100.104 41.2689 100.127 41.3968 100.125C41.5431 100.126 41.688 100.098 41.8228 100.041C41.9577 99.9849 42.0798 99.9021 42.1818 99.7977C42.2839 99.6934 42.3638 99.5696 42.4167 99.4338C42.4697 99.298 42.4946 99.153 42.4901 99.0074L41.8814 74.5431C41.8414 72.536 41.0997 70.6056 39.7842 69.0848C38.4686 67.564 36.6616 66.548 34.6748 66.2121C34.5312 66.1903 34.3851 66.1685 34.239 66.1491C33.0069 65.9967 31.7564 66.1152 30.5752 66.496C29.3941 66.8769 28.3111 67.511 27.4024 68.3537C26.4615 69.2158 25.7221 70.2732 25.2366 71.4513C24.7512 72.6294 24.5314 73.8993 24.5928 75.1713L24.5928 75.1713Z" fill="#CCCCCC"/>
<path d="M48.1141 97.345C47.7629 97.2365 47.4421 97.0477 47.1772 96.7937C46.9123 96.5397 46.7107 96.2275 46.5885 95.8821C46.4662 95.5367 46.4267 95.1676 46.4731 94.8042C46.5194 94.4409 46.6504 94.0934 46.8556 93.7895L41.8209 87.1204L46.1655 86.8525L50.2805 93.2267C50.721 93.566 51.0275 94.0489 51.1463 94.5908C51.2651 95.1328 51.1886 95.6991 50.9301 96.1904C50.6717 96.6817 50.2478 97.0667 49.7329 97.2778C49.2179 97.489 48.6448 97.5128 48.1141 97.345H48.1141Z" fill="#FFB8B8"/>
<path d="M44.5742 92.5826C44.4408 92.5287 44.3195 92.4489 44.2172 92.348C44.115 92.247 44.0339 92.1269 43.9785 91.9945L36.3935 73.9921C36.2446 73.6397 36.167 73.2614 36.165 72.8791C36.1629 72.4967 36.2366 72.1176 36.3817 71.7636C36.5268 71.4096 36.7405 71.0876 37.0106 70.8159C37.2807 70.5442 37.6019 70.3281 37.9558 70.1802C38.3097 70.0322 38.6895 69.9551 39.0733 69.9534C39.4572 69.9517 39.8376 70.0253 40.1929 70.1701C40.5481 70.315 40.8713 70.5281 41.1438 70.7974C41.4163 71.0666 41.6329 71.3868 41.7812 71.7395L49.3663 89.7421C49.4784 90.009 49.4796 90.3093 49.3698 90.5771C49.2599 90.845 49.0478 91.0584 48.7802 91.1707L45.4128 92.5786C45.2802 92.6345 45.1378 92.6636 44.9939 92.6643C44.8499 92.665 44.7073 92.6372 44.5742 92.5826L44.5742 92.5826Z" fill="#CCCCCC"/>
<path d="M32.3273 91.9476L39.6126 78.0517C39.7531 77.7845 39.9943 77.5836 40.2832 77.4933C40.5721 77.403 40.8853 77.4305 41.1538 77.5699L51.7284 83.0714C51.9967 83.2114 52.1983 83.4516 52.289 83.7394C52.3796 84.0273 52.352 84.3392 52.2121 84.6067L44.9268 98.5027C44.7863 98.7699 44.5452 98.9707 44.2562 99.0611C43.9673 99.1514 43.6542 99.1239 43.3856 98.9845L32.811 93.483C32.5428 93.343 32.3412 93.1028 32.2505 92.8149C32.1598 92.5271 32.1875 92.2152 32.3273 91.9476Z" fill="#3F3D56"/>
<path d="M37.2131 85.5989C37.0836 85.2561 36.8754 84.9482 36.6053 84.6998C36.3351 84.4514 36.0104 84.2694 35.657 84.1682C35.3036 84.067 34.9314 84.0495 34.5701 84.1171C34.2087 84.1847 33.8682 84.3354 33.5758 84.5574L26.5954 79.9446L26.5836 84.2808L33.214 87.9964C33.58 88.4144 34.0821 88.6907 34.6322 88.7769C35.1823 88.863 35.7452 88.7535 36.2223 88.4674C36.6994 88.1814 37.0602 87.7372 37.2414 87.2127C37.4225 86.6881 37.4125 86.1168 37.2131 85.5989Z" fill="#FFB8B8"/>
<path d="M28.3876 86.574L22.6828 82.0725C22.0657 81.866 21.508 81.5135 21.0577 81.0451C20.6075 80.5767 20.278 80.0065 20.0977 79.3834C19.9173 78.7603 19.8915 78.1028 20.0223 77.4676C20.1532 76.8323 20.4368 76.2381 20.8489 75.7361L26.0287 68.9737C26.3886 68.5356 26.8949 68.2411 27.4548 68.1441C28.0148 68.0471 28.5911 68.1541 29.0784 68.4456C29.5657 68.737 29.9314 69.1934 30.1087 69.7313C30.286 70.2693 30.2631 70.8528 30.044 71.3753L25.9457 78.0537L31.9686 80.8994C32.1086 80.9656 32.233 81.0606 32.3335 81.1782C32.4339 81.2958 32.5082 81.4333 32.5513 81.5816C32.5945 81.7299 32.6056 81.8856 32.5839 82.0385C32.5621 82.1914 32.5081 82.338 32.4252 82.4685L29.994 86.3014C29.9118 86.4307 29.8033 86.5415 29.6754 86.6264C29.5475 86.7113 29.4032 86.7685 29.2517 86.7943C29.2457 86.7954 29.2396 86.7963 29.2336 86.7972C29.0847 86.8196 28.9329 86.8114 28.7874 86.773C28.6418 86.7346 28.5058 86.6669 28.3876 86.574Z" fill="#CCCCCC"/>
<path d="M29.828 62.1617C29.8033 62.0898 29.7954 62.0131 29.8051 61.9376C29.8147 61.8621 29.8416 61.7899 29.8836 61.7263C29.9256 61.6628 29.9816 61.6097 30.0474 61.571C30.1132 61.5324 30.187 61.5093 30.2631 61.5035C30.4191 61.5119 30.5717 61.5518 30.7117 61.6206C30.8518 61.6894 30.9763 61.7858 31.078 61.9039C31.2863 62.1432 31.5289 62.3507 31.7979 62.5197C32.0764 62.6596 32.4541 62.6396 32.6129 62.373C32.762 62.1226 32.6598 61.7874 32.5695 61.4965C32.3399 60.7566 32.2114 59.9893 32.1875 59.2151C32.1615 58.3511 32.2839 57.4493 32.7641 56.7754C33.3838 55.9056 34.492 55.5754 35.5407 55.5994C36.5895 55.6233 37.6212 55.9458 38.6601 56.1497C39.0187 56.2201 39.4402 56.256 39.6801 55.9792C39.9352 55.6847 39.8415 55.2082 39.733 54.8107C39.4515 53.7792 39.1528 52.7127 38.4988 51.8796C37.7916 51.014 36.7814 50.4474 35.6716 50.2941C34.6062 50.1626 33.5246 50.2849 32.5159 50.6509C30.8724 51.167 29.4263 52.1705 28.3709 53.5275C27.2829 54.9705 26.8128 56.784 27.0633 58.5714C27.3081 60.1281 28.1361 61.5345 29.3806 62.5071L29.828 62.1617Z" fill="#2F2E41"/>
<path d="M102.747 136.085C101.215 135.421 99.8594 134.411 98.7866 133.135C97.7139 131.859 96.9535 130.352 96.5654 128.733C96.1774 127.114 96.1724 125.428 96.5507 123.807C96.929 122.186 97.6804 120.674 98.7455 119.392C97.5106 120.29 96.4816 121.44 95.7267 122.764C94.9719 124.089 94.5086 125.558 94.3674 127.075C94.2262 128.592 94.4105 130.121 94.908 131.561C95.4054 133.001 96.2047 134.32 97.2528 135.429C98.3009 136.538 99.5737 137.412 100.987 137.994C102.4 138.575 103.921 138.851 105.45 138.802C106.978 138.753 108.478 138.381 109.851 137.71C111.224 137.04 112.438 136.086 113.412 134.912C111.892 136.019 110.108 136.709 108.237 136.915C106.365 137.121 104.473 136.835 102.747 136.085Z" fill="#3F3D56"/>
</g>
<defs>
<filter id="filter0_d" x="0" y="0" width="206" height="147" filterUnits="userSpaceOnUse" color-interpolation-filters="sRGB">
<feFlood flood-opacity="0" result="BackgroundImageFix"/>
<feColorMatrix in="SourceAlpha" type="matrix" values="0 0 0 0 0 0 0 0 0 0 0 0 0 0 0 0 0 0 127 0"/>
<feOffset dy="4"/>
<feGaussianBlur stdDeviation="2"/>
<feColorMatrix type="matrix" values="0 0 0 0 0 0 0 0 0 0 0 0 0 0 0 0 0 0 0.25 0"/>
<feBlend mode="normal" in2="BackgroundImageFix" result="effect1_dropShadow"/>
<feBlend mode="normal" in="SourceGraphic" in2="effect1_dropShadow" result="shape"/>
</filter>
<clipPath id="clip0">
<rect width="198" height="139" fill="white" transform="translate(4)"/>
</clipPath>
</defs>
</svg>
