<svg xmlns="http://www.w3.org/2000/svg" viewBox="0 0 1024 1024"><path fill="#48772c" d="M862 375c92 10 162 88 162 180 0 100-82 182-182 182H655c-12 0-20-8-20-20s8-21 20-21h187c78 0 137-63 137-141s-64-141-141-141c-7 0-13-2-17-6-4-5-6-11-6-17 2-10 2-20 2-29 0-124-102-227-227-227-94 0-180 60-213 150-2 6-8 10-15 12-6 0-14-2-18-6-18-21-45-31-72-31-57 0-102 45-102 102v5c0 10-6 18-14 20-68 19-115 82-115 152 0 88 70 157 158 157h170c12 0 20 9 20 21s-8 20-20 20H199C88 737 0 649-2 539c0-84 53-158 131-187 6-73 68-133 143-133 29 0 58 8 80 25 45-90 140-150 242-150 147 0 268 119 268 268v13zM600 825c8-8 21-8 29 0 8 9 8 21 0 29L512 971 395 854c-8-8-8-20 0-29 8-8 21-8 29 0l68 68V532c0-12 8-20 20-20s20 8 20 20v361z"/></svg>