<svg width="31" height="31" viewBox="0 0 31 31" fill="none" xmlns="http://www.w3.org/2000/svg">
<path fill-rule="evenodd" clip-rule="evenodd" d="M15.5 0.916809C7.45002 0.916809 0.916687 7.45014 0.916687 15.5001C0.916687 23.5501 7.45002 30.0835 15.5 30.0835C23.55 30.0835 30.0834 23.5501 30.0834 15.5001C30.0834 7.45014 23.55 0.916809 15.5 0.916809ZM15.5 27.1668C9.06877 27.1668 3.83335 21.9314 3.83335 15.5001C3.83335 9.06889 9.06877 3.83348 15.5 3.83348C21.9313 3.83348 27.1667 9.06889 27.1667 15.5001C27.1667 21.9314 21.9313 27.1668 15.5 27.1668ZM12.5396 11.8106C12.5396 12.8751 13.3709 13.5897 15.9521 14.246C18.5188 14.9168 21.275 16.0251 21.2896 19.2335C21.275 21.5814 19.525 22.8501 17.3084 23.2731V25.7085H13.8959V23.2293C11.7084 22.7772 9.87088 21.3772 9.72504 18.8981H12.2334C12.3646 20.2397 13.2834 21.2897 15.6167 21.2897C18.1105 21.2897 18.6792 20.0356 18.6792 19.2626C18.6792 18.2126 18.1105 17.2064 15.2667 16.5356C12.1021 15.7772 9.92921 14.4647 9.92921 11.8543C9.92921 9.65223 11.6938 8.22306 13.8959 7.75639V5.29181H17.2938V7.78556C19.6563 8.36889 20.8521 10.1626 20.925 12.1168H18.4313C18.373 10.6876 17.6146 9.72514 15.6021 9.72514C13.6917 9.72514 12.5396 10.5856 12.5396 11.8106Z" fill="#86B96E"/>
</svg>
