<svg width="30" height="21" viewBox="0 0 30 21" fill="none" xmlns="http://www.w3.org/2000/svg">
<path fill-rule="evenodd" clip-rule="evenodd" d="M10.7502 10.5C13.4843 10.5 15.7085 8.27588 15.7085 5.54171C15.7085 2.80754 13.4843 0.583374 10.7502 0.583374C8.016 0.583374 5.79184 2.80754 5.79184 5.54171C5.79184 8.27588 8.016 10.5 10.7502 10.5ZM0.833496 17.9375C0.833496 14.6367 7.43516 12.9792 10.7502 12.9792C14.0652 12.9792 20.6668 14.6367 20.6668 17.9375V20.4167H0.833496V17.9375ZM10.7502 15.8125C8.21436 15.8125 5.33853 16.7617 4.14853 17.5834H17.3519C16.1619 16.7617 13.286 15.8125 10.7502 15.8125ZM12.8752 5.54171C12.8752 4.36588 11.926 3.41671 10.7502 3.41671C9.57432 3.41671 8.62516 4.36588 8.62516 5.54171C8.62516 6.71755 9.57432 7.66671 10.7502 7.66671C11.926 7.66671 12.8752 6.71755 12.8752 5.54171ZM20.7235 13.0642C22.3669 14.2542 23.5002 15.8409 23.5002 17.9376V20.4167H29.1668V17.9376C29.1668 15.0759 24.2085 13.4467 20.7235 13.0642ZM24.2085 5.54171C24.2085 8.27588 21.9843 10.5 19.2502 10.5C18.4852 10.5 17.7768 10.3159 17.1252 10.0042C18.0177 8.74338 18.5418 7.19921 18.5418 5.54171C18.5418 3.88421 18.0177 2.34004 17.1252 1.07921C17.7768 0.767541 18.4852 0.583374 19.2502 0.583374C21.9843 0.583374 24.2085 2.80754 24.2085 5.54171Z" fill="#86B96E"/>
</svg>
